<svg id="Layer_1" data-name="Layer 1" xmlns="http://www.w3.org/2000/svg" viewBox="0 0 44 44"><defs><style>.cls-1{fill:none;stroke:#fff;stroke-width:3px;}</style></defs><title>favicon</title><circle class="cls-1" cx="22" cy="22" r="20.5"/><path class="cls-1" d="M363.2,304a29.56,29.56,0,0,1-13,7.91c-4.21,1.09-7.61.46-9.62-1.55s-2.64-5.41-1.55-9.62a32.2,32.2,0,0,1,20.92-20.92c4.21-1.08,7.61-.46,9.62,1.55s2.64,5.41,1.55,9.62A29.56,29.56,0,0,1,363.2,304Z" transform="translate(-333.07 -273.84)"/><path class="cls-1" d="M363.2,287.71a29.47,29.47,0,0,1,7.91,13c1.09,4.21.46,7.61-1.55,9.62s-5.41,2.64-9.62,1.55A32.14,32.14,0,0,1,339,291c-1.09-4.21-.46-7.61,1.55-9.62s5.41-2.63,9.62-1.55A29.59,29.59,0,0,1,363.2,287.71Z" transform="translate(-333.07 -273.84)"/></svg>